<mxfile host="app.diagrams.net" agent="Mozilla/5.0 (X11; Linux x86_64; rv:142.0) Gecko/20100101 Firefox/142.0" version="28.1.1" pages="2">
  <diagram name="flow-description" id="I-wuxqv6vUOS9k4Ooz61">
    <mxGraphModel dx="815" dy="455" grid="1" gridSize="10" guides="1" tooltips="1" connect="1" arrows="1" fold="1" page="1" pageScale="1" pageWidth="850" pageHeight="1100" math="0" shadow="0">
      <root>
        <mxCell id="0" />
        <mxCell id="1" parent="0" />
        <mxCell id="rZRbKwKgliFu7kAViGpa-1" value="POST&lt;br&gt;/owners" style="ellipse;whiteSpace=wrap;html=1;" parent="1" vertex="1">
          <mxGeometry x="80" y="156" width="130" height="45" as="geometry" />
        </mxCell>
        <mxCell id="rZRbKwKgliFu7kAViGpa-5" value="&amp;lt;post-owners&amp;gt;" style="text;html=1;align=center;verticalAlign=middle;whiteSpace=wrap;rounded=0;" parent="1" vertex="1">
          <mxGeometry x="95" y="134" width="100" height="30" as="geometry" />
        </mxCell>
        <mxCell id="rZRbKwKgliFu7kAViGpa-15" style="edgeStyle=orthogonalEdgeStyle;rounded=0;orthogonalLoop=1;jettySize=auto;html=1;entryX=1;entryY=0.5;entryDx=0;entryDy=0;curved=1;" parent="1" source="rZRbKwKgliFu7kAViGpa-6" target="rZRbKwKgliFu7kAViGpa-1" edge="1">
          <mxGeometry relative="1" as="geometry" />
        </mxCell>
        <mxCell id="k0IeLP72yJeGpx1rk7fR-3" style="edgeStyle=orthogonalEdgeStyle;rounded=0;orthogonalLoop=1;jettySize=auto;html=1;entryX=1;entryY=0.5;entryDx=0;entryDy=0;curved=1;" parent="1" source="rZRbKwKgliFu7kAViGpa-6" target="k0IeLP72yJeGpx1rk7fR-1" edge="1">
          <mxGeometry relative="1" as="geometry" />
        </mxCell>
        <mxCell id="rZRbKwKgliFu7kAViGpa-6" value="" style="rounded=0;whiteSpace=wrap;html=1;" parent="1" vertex="1">
          <mxGeometry x="298" y="175" width="60" height="80" as="geometry" />
        </mxCell>
        <mxCell id="rZRbKwKgliFu7kAViGpa-7" value="" style="shape=image;editableCssRules=.*;verticalLabelPosition=bottom;labelBackgroundColor=default;verticalAlign=top;aspect=fixed;imageAspect=0;image=data:image/svg+xml,PHN2ZyB4bWxucz0iaHR0cDovL3d3dy53My5vcmcvMjAwMC9zdmciIHZpZXdCb3g9Ii0wLjUgLTAuNSA0MC45NDEgNDUuMDg4IiBoZWlnaHQ9IjQ1LjA4OCIgd2lkdGg9IjQwLjk0MSIgc3R5bGU9ImNvbG9yLXNjaGVtZTogbGlnaHQgZGFyazsiPiYjeGE7CSAgPHN0eWxlIHR5cGU9InRleHQvY3NzIj4uc3QwIHsgc3RvcC1jb2xvcjogbGlnaHQtZGFyayhyZ2IoMCwgMCwgMCksIHJnYigxNTUsIDExOCwgMjU1KSk7IH0gLnN0MSB7IHN0b3AtY29sb3I6IGxpZ2h0LWRhcmsocmdiKDAsIDAsIDApLCByZ2IoNzEsIDEyLCAyMzcpKTsgfSA8L3N0eWxlPiYjeGE7CTxkZWZzPiYjeGE7CQk8bGluZWFyR3JhZGllbnQgZ3JhZGllbnRVbml0cz0idXNlclNwYWNlT25Vc2UiIHkyPSIzNy43MzgiIHgyPSIzNy42MDIiIHkxPSI1LjkiIHgxPSIzLjIxMyIgaWQ9IkEiPiYjeGE7CQkJPHN0b3AgY2xhc3M9InN0MCIvPiYjeGE7CQkJPHN0b3AgY2xhc3M9InN0MSIgb2Zmc2V0PSIxIi8+JiN4YTsJCTwvbGluZWFyR3JhZGllbnQ+JiN4YTsJPC9kZWZzPiYjeGE7CTxwYXRoIGZpbGw9InVybCgjQSkiIGQ9Ik0zOC4xNDcgNC4wODhjLjcwNi41ODggMS4yNjUgMS4yMzUgMS42NzYgMS45NDEuNDEyLjY0Ny42MTggMS40NDEuNjE4IDIuMzgydjI3LjM1M2MwIC44ODItLjIzNSAxLjY3Ni0uNzA2IDIuMzgycy0xIDEuMzUzLTEuNTg4IDEuOTQxYy0uNTI5LjQ3MS0xLjIwNi45MTItMi4wMyAxLjMyNC0uNzY1LjQxMi0xLjU4OC43OTQtMi40NzEgMS4xNDctMS44MjMuNzA2LTMuOTEyIDEuMjA2LTYuMjY1IDEuNS0yLjI5NC4zNTMtNC43NjUuNTI5LTcuNDEyLjUyOXMtNS4xNDctLjE3Ni03LjUtLjUyOWMtMi4yOTQtLjI5NC00LjM1My0uNzk0LTYuMTc2LTEuNWwtMi40NzEtLjk3YTguNjQgOC42NCAwIDAgMS0yLjAyOS0xLjVDLjI2NSAzOC44NTMtLjUgMzcuNDEyLS41IDM1Ljc2NVY4LjQxMmMwLS45NDEuMjM1LTEuNzM1LjcwNi0yLjM4Mi40NzEtLjcwNiAxLTEuMzUzIDEuNTg4LTEuOTQxIDEuMTc2LTEgMi42NzYtMS44NTMgNC41LTIuNTU5QzguMTE4Ljg4MiAxMC4xNzYuMzgyIDEyLjQ3MS4wMjljMi4zNTMtLjM1MyA0Ljg1My0uNTI5IDcuNS0uNTI5czUuMTE4LjE3NiA3LjQxMi41MjljMi4zNTMuMzUzIDQuNDQxLjg1MyA2LjI2NSAxLjUuODgyLjM1MyAxLjcwNi43MzUgMi40NzEgMS4xNDcuODI0LjM1MyAxLjUuODI0IDIuMDMgMS40MTJ6bS0yLjIwNiAxOS4zMjRjLTIuNzY1Ljk0MS01LjM4MiAxLjY3Ni03Ljg1MyAyLjIwNi0yLjQxMi41MjktNS4xMTguNzk0LTguMTE4Ljc5NC0yLjY0NyAwLTUuMTQ3LS4xNzctNy41LS41MjktMi4yOTQtLjM1My00LjM1My0uODUzLTYuMTc2LTEuNS0uOTQxLS4yOTQtMS43MDYtLjYxOC0yLjI5NC0uOTcxdjMuMTc3bC4xNzYuMzUzYy4wNTkuMTE4LjIzNS4zMjQuNTI5LjYxOC43NjUuNzA2IDEuNzk0IDEuMjk0IDMuMDg4IDEuNzY1IDEuMzUzLjQ3MSAyLjc2NS44NTMgNC4yMzUgMS4xNDdsNC4zMjQuNTI5IDMuNjE4LjE3NmE1MC40NSA1MC40NSAwIDAgMCA3Ljk0MS0uNjE4YzIuNTg4LS40NyA1LjAyOS0xLjQ3IDcuMzIzLTMgLjM1My0uMjM1LjU1OS0uNDQxLjYxOC0uNjE4LjA1OS0uMTE4LjA4OC0uMjM1LjA4OC0uMzUzem0wLTkuMDg4Yy0yLjc2NS45NDEtNS4zODIgMS42NzYtNy44NTMgMi4yMDYtMi40MTIuNTI5LTUuMTE4Ljc5NC04LjExOC43OTQtLjg4MiAwLTIuMDU5LS4wNTktMy41MjktLjE3NmwtNC41ODgtLjUyOS00LjUtLjg4MmMtMS40MTItLjQxMi0yLjUyOS0uODgyLTMuMzUzLTEuNDEyVjE3LjVjMCAuMDU5LjAyOS4xNDcuMDg4LjI2NS4xMTguMDU5LjIwNi4xNDcuMjY1LjI2NWwuMzUzLjM1M2MuNzY1Ljc2NSAxLjc5NCAxLjM4MiAzLjA4OCAxLjg1MyAxLjM1My40NzEgMi43NjUuODUzIDQuMjM1IDEuMTQ3bDQuMzI0LjUyOSAzLjYxOC4xNzZjMi43MDYgMCA1LjM1My0uMjM1IDcuOTQxLS43MDZzNS4wMjktMS40NzEgNy4zMjMtM2MuMzUzLS4yMzUuNTU5LS40NDEuNjE4LS42MTguMDU5LS4xMTguMDg4LS4yMDYuMDg4LS4yNjV6TTQuNzA2IDcuNTI5Yy0uMjk0LjExOC0uNS4zMjQtLjYxOC42MTgtLjA1OS4xMTgtLjA4OC4yMDYtLjA4OC4yNjVzLjAyOS4xNDcuMDg4LjI2NWMuMTE4LjA1OS4yMDYuMTQ3LjI2NS4yNjVsLjM1My4zNTNjLjc2NS43NjUgMS43OTQgMS4zODIgMy4wODggMS44NTMgMS4zNTMuNDcxIDIuNzY1Ljg1MyA0LjIzNSAxLjE0N2w0LjMyNC41MjkgMy42MTguMTc2YzIuNDEyIDAgNC42NDctLjE0NyA2LjcwNi0uNDQxIDIuMDU5LS4zNTMgMy44NTMtLjgyNCA1LjM4Mi0xLjQxMmwzLjE3Ni0xLjg1M2MuMzUzLS4yMzUuNTU5LS40NDEuNjE4LS42MTguMDU5LS4xMTguMDg4LS4yMDYuMDg4LS4yNjUtLjA1OS0uMDU5LS4xMTctLjE0Ny0uMTc2LS4yNjVzLS4yMzUtLjMyNC0uNTI5LS42MThjLS43NjUtLjc2NS0xLjgyMy0xLjM4Mi0zLjE3Ni0xLjg1My0xLjI5NC0uNDcxLTIuNjc2LS44MjQtNC4xNDctMS4wNTktMS40NzEtLjI5NC0yLjk0MS0uNS00LjQxMi0uNjE4bC0zLjUyOS0uMTc2Yy0yLjcwNiAwLTUuMzUzLjIzNS03Ljk0MS43MDZTNyA2IDQuNzA2IDcuNTI5em0zMC41MjkgMjkuMTE4Yy4zNTMtLjIzNS41NTktLjQ0MS42MTgtLjYxOC4wNTktLjExNy4wODgtLjIwNi4wODgtLjI2NVYzMi41Yy0uMDU5LjA1OS0uMTE3LjA4OC0uMTc2LjA4OHMtLjA4OC4wMjktLjA4OC4wODhIMzUuNWwtLjE3Ni4wODhjLS4wNTkuMDU5LS4xMTguMDg4LS4xNzYuMDg4LTIuNjQ3IDEtNS4xNDcgMS43MDYtNy41IDIuMTE4LTIuMjk0LjM1My00Ljg1My41MjktNy42NzYuNTI5LS44ODIgMC0yLjA1OS0uMDU5LTMuNTI5LS4xNzZsLTQuNTg4LS41MjktNC41LS44ODJDNS45NDEgMzMuNSA0LjgyNCAzMy4wMjkgNCAzMi41djMuMjY1YzAgLjA1OS4wMjkuMTQ3LjA4OC4yNjUuMDU5LjE3Ni4yNjUuMzgzLjYxOC42MTguNzY1Ljc2NSAxLjc5NCAxLjM4MiAzLjA4OCAxLjg1MyAxLjM1My40NzEgMi43NjUuODUzIDQuMjM1IDEuMTQ3bDQuMzI0LjUyOSAzLjYxOC4wODhjMi43MDYgMCA1LjM1My0uMjA2IDcuOTQxLS42MTggMi41ODgtLjQ3MSA1LjAyOS0xLjQ3IDcuMzIzLTN6Ii8+JiN4YTs8L3N2Zz4=;" parent="1" vertex="1">
          <mxGeometry x="307.5" y="205.5" width="41" height="45" as="geometry" />
        </mxCell>
        <mxCell id="rZRbKwKgliFu7kAViGpa-8" value="my doctor&#39;s&lt;br&gt;&amp;lt;database&amp;gt;" style="text;html=1;align=center;verticalAlign=middle;resizable=0;points=[];autosize=1;strokeColor=none;fillColor=none;" parent="1" vertex="1">
          <mxGeometry x="283" y="250" width="90" height="40" as="geometry" />
        </mxCell>
        <mxCell id="rZRbKwKgliFu7kAViGpa-13" style="edgeStyle=orthogonalEdgeStyle;rounded=0;orthogonalLoop=1;jettySize=auto;html=1;entryX=1;entryY=0.5;entryDx=0;entryDy=0;curved=1;" parent="1" source="rZRbKwKgliFu7kAViGpa-9" target="rZRbKwKgliFu7kAViGpa-6" edge="1">
          <mxGeometry relative="1" as="geometry" />
        </mxCell>
        <mxCell id="rZRbKwKgliFu7kAViGpa-9" value="GET&lt;br&gt;/owners" style="ellipse;whiteSpace=wrap;html=1;" parent="1" vertex="1">
          <mxGeometry x="445" y="158.5" width="105" height="42.5" as="geometry" />
        </mxCell>
        <mxCell id="rZRbKwKgliFu7kAViGpa-10" value="&amp;lt;get-owners&amp;gt;" style="text;html=1;align=center;verticalAlign=middle;whiteSpace=wrap;rounded=0;" parent="1" vertex="1">
          <mxGeometry x="447.5" y="134" width="100" height="30" as="geometry" />
        </mxCell>
        <mxCell id="rZRbKwKgliFu7kAViGpa-14" style="edgeStyle=orthogonalEdgeStyle;rounded=0;orthogonalLoop=1;jettySize=auto;html=1;entryX=1;entryY=0.5;entryDx=0;entryDy=0;curved=1;" parent="1" source="rZRbKwKgliFu7kAViGpa-11" target="rZRbKwKgliFu7kAViGpa-6" edge="1">
          <mxGeometry relative="1" as="geometry" />
        </mxCell>
        <mxCell id="rZRbKwKgliFu7kAViGpa-11" value="GET&lt;br&gt;/owners/{id}" style="ellipse;whiteSpace=wrap;html=1;" parent="1" vertex="1">
          <mxGeometry x="442.5" y="231" width="105" height="45" as="geometry" />
        </mxCell>
        <mxCell id="rZRbKwKgliFu7kAViGpa-12" value="&amp;lt;get-owner&amp;gt;" style="text;html=1;align=center;verticalAlign=middle;whiteSpace=wrap;rounded=0;" parent="1" vertex="1">
          <mxGeometry x="445" y="207.5" width="100" height="30" as="geometry" />
        </mxCell>
        <mxCell id="k0IeLP72yJeGpx1rk7fR-1" value="POST&lt;br&gt;/owner/{id}/{pet-id}/change-owner" style="ellipse;whiteSpace=wrap;html=1;" parent="1" vertex="1">
          <mxGeometry x="80" y="231" width="130" height="45" as="geometry" />
        </mxCell>
        <mxCell id="k0IeLP72yJeGpx1rk7fR-2" value="&amp;lt;change-owners&amp;gt;" style="text;html=1;align=center;verticalAlign=middle;whiteSpace=wrap;rounded=0;" parent="1" vertex="1">
          <mxGeometry x="95" y="210" width="100" height="30" as="geometry" />
        </mxCell>
        <mxCell id="hXMtr6De4ziYcSonSsdT-1" value="" style="verticalLabelPosition=bottom;sketch=0;html=1;fillColor=#282828;strokeColor=none;verticalAlign=top;pointerEvents=1;align=center;shape=mxgraph.cisco_safe.people_places_things_icons.icon8;" parent="1" vertex="1">
          <mxGeometry x="259.25" y="120" width="19.5" height="50" as="geometry" />
        </mxCell>
        <mxCell id="hXMtr6De4ziYcSonSsdT-3" value="Register&lt;br&gt;me and my pets&lt;br&gt;🐈🐈‍⬛" style="ellipse;shape=cloud;whiteSpace=wrap;html=1;fillColor=#dae8fc;strokeColor=none;" parent="1" vertex="1">
          <mxGeometry x="69.25" y="64" width="178" height="70" as="geometry" />
        </mxCell>
        <mxCell id="hXMtr6De4ziYcSonSsdT-4" value="" style="ellipse;whiteSpace=wrap;html=1;aspect=fixed;fillColor=#dae8fc;strokeColor=none;" parent="1" vertex="1">
          <mxGeometry x="231.25" y="118" width="16" height="16" as="geometry" />
        </mxCell>
        <mxCell id="hXMtr6De4ziYcSonSsdT-5" value="" style="ellipse;whiteSpace=wrap;html=1;aspect=fixed;fillColor=#dae8fc;strokeColor=none;" parent="1" vertex="1">
          <mxGeometry x="247.25" y="123" width="13" height="13" as="geometry" />
        </mxCell>
        <mxCell id="hXMtr6De4ziYcSonSsdT-6" value="pet owner" style="text;html=1;align=center;verticalAlign=middle;whiteSpace=wrap;rounded=0;" parent="1" vertex="1">
          <mxGeometry x="240" y="94" width="60" height="30" as="geometry" />
        </mxCell>
        <mxCell id="MS6fMDiWG6Wrfyqi3K5X-2" value="" style="endArrow=classic;html=1;rounded=0;entryX=0;entryY=1;entryDx=0;entryDy=0;exitX=1;exitY=0.5;exitDx=0;exitDy=0;" parent="1" source="k0IeLP72yJeGpx1rk7fR-1" target="rZRbKwKgliFu7kAViGpa-6" edge="1">
          <mxGeometry width="50" height="50" relative="1" as="geometry">
            <mxPoint x="200" y="290" as="sourcePoint" />
            <mxPoint x="250" y="240" as="targetPoint" />
          </mxGeometry>
        </mxCell>
        <mxCell id="MS6fMDiWG6Wrfyqi3K5X-3" value="&lt;font style=&quot;font-size: 14px;&quot;&gt;🐈&lt;/font&gt;" style="text;html=1;align=center;verticalAlign=middle;whiteSpace=wrap;rounded=0;" parent="1" vertex="1">
          <mxGeometry x="257.25" y="142" width="21.5" height="20" as="geometry" />
        </mxCell>
        <mxCell id="MS6fMDiWG6Wrfyqi3K5X-4" value="" style="verticalLabelPosition=bottom;sketch=0;html=1;fillColor=#282828;strokeColor=none;verticalAlign=top;pointerEvents=1;align=center;shape=mxgraph.cisco_safe.people_places_things_icons.icon8;" parent="1" vertex="1">
          <mxGeometry x="370" y="120" width="19.5" height="50" as="geometry" />
        </mxCell>
        <mxCell id="MS6fMDiWG6Wrfyqi3K5X-5" value="" style="ellipse;whiteSpace=wrap;html=1;aspect=fixed;fillColor=#dae8fc;strokeColor=none;" parent="1" vertex="1">
          <mxGeometry x="389.5" y="118" width="13" height="13" as="geometry" />
        </mxCell>
        <mxCell id="MS6fMDiWG6Wrfyqi3K5X-6" value="" style="ellipse;whiteSpace=wrap;html=1;aspect=fixed;fillColor=#dae8fc;strokeColor=none;" parent="1" vertex="1">
          <mxGeometry x="402.5" y="104" width="16" height="16" as="geometry" />
        </mxCell>
        <mxCell id="MS6fMDiWG6Wrfyqi3K5X-7" value="" style="ellipse;shape=cloud;whiteSpace=wrap;html=1;fillColor=#dae8fc;strokeColor=none;" parent="1" vertex="1">
          <mxGeometry x="402.5" y="58" width="178" height="70" as="geometry" />
        </mxCell>
        <mxCell id="MS6fMDiWG6Wrfyqi3K5X-8" value="&lt;font style=&quot;font-size: 14px;&quot;&gt;💉&lt;/font&gt;" style="text;html=1;align=center;verticalAlign=middle;whiteSpace=wrap;rounded=0;" parent="1" vertex="1">
          <mxGeometry x="370" y="144" width="17.5" height="20" as="geometry" />
        </mxCell>
        <mxCell id="MS6fMDiWG6Wrfyqi3K5X-9" value="other doctor" style="text;html=1;align=center;verticalAlign=middle;whiteSpace=wrap;rounded=0;" parent="1" vertex="1">
          <mxGeometry x="349.75" y="90" width="60" height="30" as="geometry" />
        </mxCell>
        <mxCell id="MS6fMDiWG6Wrfyqi3K5X-10" value="&lt;div&gt;What is the medical&lt;/div&gt;&lt;div&gt;background of these&lt;br&gt;cats?&lt;/div&gt;" style="text;html=1;align=center;verticalAlign=middle;whiteSpace=wrap;rounded=0;" parent="1" vertex="1">
          <mxGeometry x="425" y="74" width="145" height="46" as="geometry" />
        </mxCell>
        <mxCell id="MS6fMDiWG6Wrfyqi3K5X-11" value="&lt;font style=&quot;font-size: 24px;&quot;&gt;🧑‍⚕️&lt;/font&gt;" style="text;html=1;align=center;verticalAlign=middle;whiteSpace=wrap;rounded=0;" parent="1" vertex="1">
          <mxGeometry x="313" y="177.5" width="30" height="30" as="geometry" />
        </mxCell>
      </root>
    </mxGraphModel>
  </diagram>
  <diagram name="interface-description" id="zmVLXVvBEWYfkKTz5GkW">
    <mxGraphModel dx="815" dy="455" grid="1" gridSize="10" guides="1" tooltips="1" connect="1" arrows="1" fold="1" page="1" pageScale="1" pageWidth="850" pageHeight="1100" math="0" shadow="0">
      <root>
        <mxCell id="evG-HpBoxvzyEnpaOPum-0" />
        <mxCell id="evG-HpBoxvzyEnpaOPum-1" parent="evG-HpBoxvzyEnpaOPum-0" />
        <mxCell id="evG-HpBoxvzyEnpaOPum-2" value="POST&lt;br&gt;/owners" style="ellipse;whiteSpace=wrap;html=1;" vertex="1" parent="evG-HpBoxvzyEnpaOPum-1">
          <mxGeometry x="80" y="156" width="130" height="45" as="geometry" />
        </mxCell>
        <mxCell id="evG-HpBoxvzyEnpaOPum-6" value="" style="rounded=0;whiteSpace=wrap;html=1;" vertex="1" parent="evG-HpBoxvzyEnpaOPum-1">
          <mxGeometry x="298" y="175" width="60" height="80" as="geometry" />
        </mxCell>
        <mxCell id="evG-HpBoxvzyEnpaOPum-7" value="" style="shape=image;editableCssRules=.*;verticalLabelPosition=bottom;labelBackgroundColor=default;verticalAlign=top;aspect=fixed;imageAspect=0;image=data:image/svg+xml,PHN2ZyB4bWxucz0iaHR0cDovL3d3dy53My5vcmcvMjAwMC9zdmciIHZpZXdCb3g9Ii0wLjUgLTAuNSA0MC45NDEgNDUuMDg4IiBoZWlnaHQ9IjQ1LjA4OCIgd2lkdGg9IjQwLjk0MSIgc3R5bGU9ImNvbG9yLXNjaGVtZTogbGlnaHQgZGFyazsiPiYjeGE7CSAgPHN0eWxlIHR5cGU9InRleHQvY3NzIj4uc3QwIHsgc3RvcC1jb2xvcjogbGlnaHQtZGFyayhyZ2IoMCwgMCwgMCksIHJnYigxNTUsIDExOCwgMjU1KSk7IH0gLnN0MSB7IHN0b3AtY29sb3I6IGxpZ2h0LWRhcmsocmdiKDAsIDAsIDApLCByZ2IoNzEsIDEyLCAyMzcpKTsgfSA8L3N0eWxlPiYjeGE7CTxkZWZzPiYjeGE7CQk8bGluZWFyR3JhZGllbnQgZ3JhZGllbnRVbml0cz0idXNlclNwYWNlT25Vc2UiIHkyPSIzNy43MzgiIHgyPSIzNy42MDIiIHkxPSI1LjkiIHgxPSIzLjIxMyIgaWQ9IkEiPiYjeGE7CQkJPHN0b3AgY2xhc3M9InN0MCIvPiYjeGE7CQkJPHN0b3AgY2xhc3M9InN0MSIgb2Zmc2V0PSIxIi8+JiN4YTsJCTwvbGluZWFyR3JhZGllbnQ+JiN4YTsJPC9kZWZzPiYjeGE7CTxwYXRoIGZpbGw9InVybCgjQSkiIGQ9Ik0zOC4xNDcgNC4wODhjLjcwNi41ODggMS4yNjUgMS4yMzUgMS42NzYgMS45NDEuNDEyLjY0Ny42MTggMS40NDEuNjE4IDIuMzgydjI3LjM1M2MwIC44ODItLjIzNSAxLjY3Ni0uNzA2IDIuMzgycy0xIDEuMzUzLTEuNTg4IDEuOTQxYy0uNTI5LjQ3MS0xLjIwNi45MTItMi4wMyAxLjMyNC0uNzY1LjQxMi0xLjU4OC43OTQtMi40NzEgMS4xNDctMS44MjMuNzA2LTMuOTEyIDEuMjA2LTYuMjY1IDEuNS0yLjI5NC4zNTMtNC43NjUuNTI5LTcuNDEyLjUyOXMtNS4xNDctLjE3Ni03LjUtLjUyOWMtMi4yOTQtLjI5NC00LjM1My0uNzk0LTYuMTc2LTEuNWwtMi40NzEtLjk3YTguNjQgOC42NCAwIDAgMS0yLjAyOS0xLjVDLjI2NSAzOC44NTMtLjUgMzcuNDEyLS41IDM1Ljc2NVY4LjQxMmMwLS45NDEuMjM1LTEuNzM1LjcwNi0yLjM4Mi40NzEtLjcwNiAxLTEuMzUzIDEuNTg4LTEuOTQxIDEuMTc2LTEgMi42NzYtMS44NTMgNC41LTIuNTU5QzguMTE4Ljg4MiAxMC4xNzYuMzgyIDEyLjQ3MS4wMjljMi4zNTMtLjM1MyA0Ljg1My0uNTI5IDcuNS0uNTI5czUuMTE4LjE3NiA3LjQxMi41MjljMi4zNTMuMzUzIDQuNDQxLjg1MyA2LjI2NSAxLjUuODgyLjM1MyAxLjcwNi43MzUgMi40NzEgMS4xNDcuODI0LjM1MyAxLjUuODI0IDIuMDMgMS40MTJ6bS0yLjIwNiAxOS4zMjRjLTIuNzY1Ljk0MS01LjM4MiAxLjY3Ni03Ljg1MyAyLjIwNi0yLjQxMi41MjktNS4xMTguNzk0LTguMTE4Ljc5NC0yLjY0NyAwLTUuMTQ3LS4xNzctNy41LS41MjktMi4yOTQtLjM1My00LjM1My0uODUzLTYuMTc2LTEuNS0uOTQxLS4yOTQtMS43MDYtLjYxOC0yLjI5NC0uOTcxdjMuMTc3bC4xNzYuMzUzYy4wNTkuMTE4LjIzNS4zMjQuNTI5LjYxOC43NjUuNzA2IDEuNzk0IDEuMjk0IDMuMDg4IDEuNzY1IDEuMzUzLjQ3MSAyLjc2NS44NTMgNC4yMzUgMS4xNDdsNC4zMjQuNTI5IDMuNjE4LjE3NmE1MC40NSA1MC40NSAwIDAgMCA3Ljk0MS0uNjE4YzIuNTg4LS40NyA1LjAyOS0xLjQ3IDcuMzIzLTMgLjM1My0uMjM1LjU1OS0uNDQxLjYxOC0uNjE4LjA1OS0uMTE4LjA4OC0uMjM1LjA4OC0uMzUzem0wLTkuMDg4Yy0yLjc2NS45NDEtNS4zODIgMS42NzYtNy44NTMgMi4yMDYtMi40MTIuNTI5LTUuMTE4Ljc5NC04LjExOC43OTQtLjg4MiAwLTIuMDU5LS4wNTktMy41MjktLjE3NmwtNC41ODgtLjUyOS00LjUtLjg4MmMtMS40MTItLjQxMi0yLjUyOS0uODgyLTMuMzUzLTEuNDEyVjE3LjVjMCAuMDU5LjAyOS4xNDcuMDg4LjI2NS4xMTguMDU5LjIwNi4xNDcuMjY1LjI2NWwuMzUzLjM1M2MuNzY1Ljc2NSAxLjc5NCAxLjM4MiAzLjA4OCAxLjg1MyAxLjM1My40NzEgMi43NjUuODUzIDQuMjM1IDEuMTQ3bDQuMzI0LjUyOSAzLjYxOC4xNzZjMi43MDYgMCA1LjM1My0uMjM1IDcuOTQxLS43MDZzNS4wMjktMS40NzEgNy4zMjMtM2MuMzUzLS4yMzUuNTU5LS40NDEuNjE4LS42MTguMDU5LS4xMTguMDg4LS4yMDYuMDg4LS4yNjV6TTQuNzA2IDcuNTI5Yy0uMjk0LjExOC0uNS4zMjQtLjYxOC42MTgtLjA1OS4xMTgtLjA4OC4yMDYtLjA4OC4yNjVzLjAyOS4xNDcuMDg4LjI2NWMuMTE4LjA1OS4yMDYuMTQ3LjI2NS4yNjVsLjM1My4zNTNjLjc2NS43NjUgMS43OTQgMS4zODIgMy4wODggMS44NTMgMS4zNTMuNDcxIDIuNzY1Ljg1MyA0LjIzNSAxLjE0N2w0LjMyNC41MjkgMy42MTguMTc2YzIuNDEyIDAgNC42NDctLjE0NyA2LjcwNi0uNDQxIDIuMDU5LS4zNTMgMy44NTMtLjgyNCA1LjM4Mi0xLjQxMmwzLjE3Ni0xLjg1M2MuMzUzLS4yMzUuNTU5LS40NDEuNjE4LS42MTguMDU5LS4xMTguMDg4LS4yMDYuMDg4LS4yNjUtLjA1OS0uMDU5LS4xMTctLjE0Ny0uMTc2LS4yNjVzLS4yMzUtLjMyNC0uNTI5LS42MThjLS43NjUtLjc2NS0xLjgyMy0xLjM4Mi0zLjE3Ni0xLjg1My0xLjI5NC0uNDcxLTIuNjc2LS44MjQtNC4xNDctMS4wNTktMS40NzEtLjI5NC0yLjk0MS0uNS00LjQxMi0uNjE4bC0zLjUyOS0uMTc2Yy0yLjcwNiAwLTUuMzUzLjIzNS03Ljk0MS43MDZTNyA2IDQuNzA2IDcuNTI5em0zMC41MjkgMjkuMTE4Yy4zNTMtLjIzNS41NTktLjQ0MS42MTgtLjYxOC4wNTktLjExNy4wODgtLjIwNi4wODgtLjI2NVYzMi41Yy0uMDU5LjA1OS0uMTE3LjA4OC0uMTc2LjA4OHMtLjA4OC4wMjktLjA4OC4wODhIMzUuNWwtLjE3Ni4wODhjLS4wNTkuMDU5LS4xMTguMDg4LS4xNzYuMDg4LTIuNjQ3IDEtNS4xNDcgMS43MDYtNy41IDIuMTE4LTIuMjk0LjM1My00Ljg1My41MjktNy42NzYuNTI5LS44ODIgMC0yLjA1OS0uMDU5LTMuNTI5LS4xNzZsLTQuNTg4LS41MjktNC41LS44ODJDNS45NDEgMzMuNSA0LjgyNCAzMy4wMjkgNCAzMi41djMuMjY1YzAgLjA1OS4wMjkuMTQ3LjA4OC4yNjUuMDU5LjE3Ni4yNjUuMzgzLjYxOC42MTguNzY1Ljc2NSAxLjc5NCAxLjM4MiAzLjA4OCAxLjg1MyAxLjM1My40NzEgMi43NjUuODUzIDQuMjM1IDEuMTQ3bDQuMzI0LjUyOSAzLjYxOC4wODhjMi43MDYgMCA1LjM1My0uMjA2IDcuOTQxLS42MTggMi41ODgtLjQ3MSA1LjAyOS0xLjQ3IDcuMzIzLTN6Ii8+JiN4YTs8L3N2Zz4=;" vertex="1" parent="evG-HpBoxvzyEnpaOPum-1">
          <mxGeometry x="307.5" y="205.5" width="41" height="45" as="geometry" />
        </mxCell>
        <mxCell id="evG-HpBoxvzyEnpaOPum-8" value="my doctor&#39;s&lt;br&gt;&amp;lt;database&amp;gt;" style="text;html=1;align=center;verticalAlign=middle;resizable=0;points=[];autosize=1;strokeColor=none;fillColor=none;" vertex="1" parent="evG-HpBoxvzyEnpaOPum-1">
          <mxGeometry x="283" y="250" width="90" height="40" as="geometry" />
        </mxCell>
        <mxCell id="evG-HpBoxvzyEnpaOPum-10" value="GET&lt;br&gt;/owners" style="ellipse;whiteSpace=wrap;html=1;" vertex="1" parent="evG-HpBoxvzyEnpaOPum-1">
          <mxGeometry x="445" y="158.5" width="105" height="42.5" as="geometry" />
        </mxCell>
        <mxCell id="evG-HpBoxvzyEnpaOPum-13" value="GET&lt;br&gt;/owners/{id}" style="ellipse;whiteSpace=wrap;html=1;" vertex="1" parent="evG-HpBoxvzyEnpaOPum-1">
          <mxGeometry x="442.5" y="231" width="105" height="45" as="geometry" />
        </mxCell>
        <mxCell id="evG-HpBoxvzyEnpaOPum-15" value="POST&lt;br&gt;/owner/{id}/{pet-id}/change-owner" style="ellipse;whiteSpace=wrap;html=1;" vertex="1" parent="evG-HpBoxvzyEnpaOPum-1">
          <mxGeometry x="80" y="231" width="130" height="45" as="geometry" />
        </mxCell>
        <mxCell id="evG-HpBoxvzyEnpaOPum-17" value="" style="verticalLabelPosition=bottom;sketch=0;html=1;fillColor=#282828;strokeColor=none;verticalAlign=top;pointerEvents=1;align=center;shape=mxgraph.cisco_safe.people_places_things_icons.icon8;" vertex="1" parent="evG-HpBoxvzyEnpaOPum-1">
          <mxGeometry x="259.25" y="120" width="19.5" height="50" as="geometry" />
        </mxCell>
        <mxCell id="evG-HpBoxvzyEnpaOPum-18" value="Register&lt;br&gt;me and my pets&lt;br&gt;🐈🐈‍⬛" style="ellipse;shape=cloud;whiteSpace=wrap;html=1;fillColor=#dae8fc;strokeColor=none;" vertex="1" parent="evG-HpBoxvzyEnpaOPum-1">
          <mxGeometry x="69.25" y="64" width="178" height="70" as="geometry" />
        </mxCell>
        <mxCell id="evG-HpBoxvzyEnpaOPum-19" value="" style="ellipse;whiteSpace=wrap;html=1;aspect=fixed;fillColor=#dae8fc;strokeColor=none;" vertex="1" parent="evG-HpBoxvzyEnpaOPum-1">
          <mxGeometry x="231.25" y="118" width="16" height="16" as="geometry" />
        </mxCell>
        <mxCell id="evG-HpBoxvzyEnpaOPum-20" value="" style="ellipse;whiteSpace=wrap;html=1;aspect=fixed;fillColor=#dae8fc;strokeColor=none;" vertex="1" parent="evG-HpBoxvzyEnpaOPum-1">
          <mxGeometry x="247.25" y="123" width="13" height="13" as="geometry" />
        </mxCell>
        <mxCell id="evG-HpBoxvzyEnpaOPum-21" value="pet owner" style="text;html=1;align=center;verticalAlign=middle;whiteSpace=wrap;rounded=0;" vertex="1" parent="evG-HpBoxvzyEnpaOPum-1">
          <mxGeometry x="240" y="94" width="60" height="30" as="geometry" />
        </mxCell>
        <mxCell id="evG-HpBoxvzyEnpaOPum-23" value="&lt;font style=&quot;font-size: 14px;&quot;&gt;🐈&lt;/font&gt;" style="text;html=1;align=center;verticalAlign=middle;whiteSpace=wrap;rounded=0;" vertex="1" parent="evG-HpBoxvzyEnpaOPum-1">
          <mxGeometry x="257.25" y="142" width="21.5" height="20" as="geometry" />
        </mxCell>
        <mxCell id="evG-HpBoxvzyEnpaOPum-24" value="" style="verticalLabelPosition=bottom;sketch=0;html=1;fillColor=#282828;strokeColor=none;verticalAlign=top;pointerEvents=1;align=center;shape=mxgraph.cisco_safe.people_places_things_icons.icon8;" vertex="1" parent="evG-HpBoxvzyEnpaOPum-1">
          <mxGeometry x="370" y="120" width="19.5" height="50" as="geometry" />
        </mxCell>
        <mxCell id="evG-HpBoxvzyEnpaOPum-25" value="" style="ellipse;whiteSpace=wrap;html=1;aspect=fixed;fillColor=#dae8fc;strokeColor=none;" vertex="1" parent="evG-HpBoxvzyEnpaOPum-1">
          <mxGeometry x="389.5" y="118" width="13" height="13" as="geometry" />
        </mxCell>
        <mxCell id="evG-HpBoxvzyEnpaOPum-26" value="" style="ellipse;whiteSpace=wrap;html=1;aspect=fixed;fillColor=#dae8fc;strokeColor=none;" vertex="1" parent="evG-HpBoxvzyEnpaOPum-1">
          <mxGeometry x="402.5" y="104" width="16" height="16" as="geometry" />
        </mxCell>
        <mxCell id="evG-HpBoxvzyEnpaOPum-27" value="" style="ellipse;shape=cloud;whiteSpace=wrap;html=1;fillColor=#dae8fc;strokeColor=none;" vertex="1" parent="evG-HpBoxvzyEnpaOPum-1">
          <mxGeometry x="402.5" y="58" width="178" height="70" as="geometry" />
        </mxCell>
        <mxCell id="evG-HpBoxvzyEnpaOPum-28" value="&lt;font style=&quot;font-size: 14px;&quot;&gt;💉&lt;/font&gt;" style="text;html=1;align=center;verticalAlign=middle;whiteSpace=wrap;rounded=0;" vertex="1" parent="evG-HpBoxvzyEnpaOPum-1">
          <mxGeometry x="370" y="144" width="17.5" height="20" as="geometry" />
        </mxCell>
        <mxCell id="evG-HpBoxvzyEnpaOPum-29" value="other doctor" style="text;html=1;align=center;verticalAlign=middle;whiteSpace=wrap;rounded=0;" vertex="1" parent="evG-HpBoxvzyEnpaOPum-1">
          <mxGeometry x="349.75" y="90" width="60" height="30" as="geometry" />
        </mxCell>
        <mxCell id="evG-HpBoxvzyEnpaOPum-30" value="&lt;div&gt;What is the medical&lt;/div&gt;&lt;div&gt;background of these&lt;br&gt;cats?&lt;/div&gt;" style="text;html=1;align=center;verticalAlign=middle;whiteSpace=wrap;rounded=0;" vertex="1" parent="evG-HpBoxvzyEnpaOPum-1">
          <mxGeometry x="425" y="74" width="145" height="46" as="geometry" />
        </mxCell>
        <mxCell id="evG-HpBoxvzyEnpaOPum-31" value="&lt;font style=&quot;font-size: 24px;&quot;&gt;🧑‍⚕️&lt;/font&gt;" style="text;html=1;align=center;verticalAlign=middle;whiteSpace=wrap;rounded=0;" vertex="1" parent="evG-HpBoxvzyEnpaOPum-1">
          <mxGeometry x="313" y="177.5" width="30" height="30" as="geometry" />
        </mxCell>
        <mxCell id="fJOZf43xwzK0CI9BAH3D-0" value="" style="ellipse;shape=cloud;whiteSpace=wrap;html=1;fillStyle=solid;fillColor=#989898;strokeColor=none;opacity=80;" vertex="1" parent="evG-HpBoxvzyEnpaOPum-1">
          <mxGeometry x="222.38" y="160.5" width="211.25" height="124" as="geometry" />
        </mxCell>
      </root>
    </mxGraphModel>
  </diagram>
</mxfile>
